<?xml version="1.0" standalone="no"?>
<!DOCTYPE svg PUBLIC "-//W3C//DTD SVG 20010904//EN"
 "http://www.w3.org/TR/2001/REC-SVG-20010904/DTD/svg10.dtd">
<svg version="1.0" xmlns="http://www.w3.org/2000/svg"
 width="700.000000pt" height="700.000000pt" viewBox="0 0 700.000000 700.000000"
 preserveAspectRatio="xMidYMid meet">
<metadata>
Created by potrace 1.14, written by Peter Selinger 2001-2017
</metadata>
<g transform="translate(0.000000,700.000000) scale(0.100000,-0.100000)"
fill="#000000" stroke="none">
<path d="M4030 6375 c0 -3 7 -20 16 -38 15 -31 23 -35 93 -52 42 -10 83 -20
91 -23 8 -2 -3 9 -25 26 -37 27 -175 96 -175 87z"/>
<path d="M2161 6289 c-15 -6 -21 -14 -17 -25 3 -9 9 -27 12 -40 5 -18 16 -25
47 -32 23 -5 43 -7 45 -6 2 1 -4 27 -14 58 -18 58 -27 64 -73 45z"/>
<path d="M2423 6180 c-23 -38 -40 -70 -37 -70 13 0 164 74 164 80 0 6 -74 60
-82 60 -2 0 -22 -31 -45 -70z"/>
<path d="M4388 6237 c-16 -6 -28 -14 -28 -18 0 -18 38 -47 68 -53 36 -6 39 1
21 53 -12 33 -18 35 -61 18z"/>
<path d="M4772 6243 c-23 -3 -39 -14 -57 -41 -13 -20 -23 -37 -21 -39 3 -4
138 16 143 21 6 5 -14 60 -23 61 -5 1 -24 0 -42 -2z"/>
<path d="M4004 6197 c-23 -20 -25 -26 -15 -45 17 -32 51 -9 51 35 0 18 -2 33
-4 33 -3 0 -17 -10 -32 -23z"/>
<path d="M5188 6213 c-22 -5 -22 -14 -4 -58 10 -24 23 -36 43 -40 15 -4 34 -8
41 -11 16 -4 16 -4 -9 61 -20 55 -27 60 -71 48z"/>
<path d="M4941 6125 c-17 -30 -31 -57 -31 -60 0 -3 22 -5 48 -5 48 0 49 1 60
39 7 21 12 43 12 48 0 8 -41 33 -55 33 -1 0 -17 -25 -34 -55z"/>
<path d="M2644 6102 c-19 -12 -28 -73 -13 -83 28 -17 45 -9 58 29 8 20 16 43
18 50 6 13 -44 17 -63 4z"/>
<path d="M3578 6092 c-93 -9 -168 -18 -168 -22 0 -4 77 -9 170 -12 l170 -6 45
-41 c24 -23 47 -41 50 -41 3 0 5 32 5 70 l0 70 -52 -1 c-29 -1 -128 -9 -220
-17z"/>
<path d="M2230 6077 c0 -3 10 -30 21 -61 23 -59 20 -57 122 -82 l27 -6 -32 55
c-27 45 -42 59 -78 74 -25 10 -48 20 -52 21 -5 2 -8 1 -8 -1z"/>
<path d="M4555 6061 l-50 -7 64 -8 c52 -7 70 -15 101 -42 21 -19 40 -34 44
-34 3 0 6 23 6 50 l0 50 -57 -2 c-32 0 -80 -4 -108 -7z"/>
<path d="M2780 5984 c0 -30 2 -54 4 -54 12 0 199 93 191 96 -5 1 -52 4 -102 7
l-93 4 0 -53z"/>
<path d="M3880 5990 l0 -50 143 0 c275 0 598 13 588 23 -9 9 -625 76 -703 77
-27 0 -28 -2 -28 -50z"/>
<path d="M3188 6020 l-117 -5 -60 -123 c-64 -128 -78 -196 -46 -208 13 -5 15
-37 15 -200 l0 -193 99 -78 c61 -48 95 -80 88 -85 -6 -4 -29 -10 -49 -13 -21
-4 -36 -10 -33 -14 2 -4 -11 -23 -30 -41 -31 -30 -33 -37 -30 -79 11 -126 14
-234 6 -226 -5 6 -48 104 -95 219 -78 189 -85 213 -76 241 8 26 2 73 -35 256
-25 123 -48 231 -51 240 -2 9 -27 30 -55 48 l-50 31 -174 -17 c-144 -13 -176
-19 -180 -33 -4 -11 -40 -25 -125 -45 -108 -26 -120 -31 -120 -51 0 -12 16
-124 35 -250 19 -125 35 -231 35 -235 0 -4 6 -9 14 -11 11 -2 4 -29 -31 -116
-25 -62 -49 -110 -53 -105 -4 4 -24 62 -45 128 -20 66 -54 177 -76 247 l-40
127 -126 100 -127 99 -40 -16 c-23 -8 -124 -50 -225 -91 l-185 -76 -12 -48
c-7 -27 -15 -51 -17 -54 -3 -2 -28 7 -56 21 l-51 26 -227 -91 c-126 -50 -229
-92 -231 -93 -1 -2 10 -38 25 -81 23 -66 34 -82 63 -99 l35 -21 -45 -7 c-25
-3 -75 -7 -112 -7 -38 -1 -68 -3 -68 -5 0 -3 85 -191 189 -418 l190 -413 81
-30 c45 -16 85 -37 90 -45 4 -8 36 -95 71 -194 l63 -179 69 -44 68 -44 244 87
244 86 33 -23 33 -24 -60 -7 c-35 -3 -154 -40 -289 -88 l-230 -81 -72 51 -73
50 -12 -39 c-11 -37 -9 -46 32 -144 l44 -104 295 163 c162 90 299 163 303 164
5 0 7 -12 5 -27 -2 -23 -99 -107 -570 -493 -312 -255 -566 -465 -565 -466 2
-2 817 140 868 151 22 5 29 4 25 -4 -4 -6 -79 -93 -167 -194 -97 -110 -154
-183 -146 -185 8 -2 97 6 198 17 100 11 185 18 188 15 6 -5 23 11 -249 -239
-118 -109 -228 -211 -245 -226 l-29 -29 69 20 c39 11 155 44 260 74 104 30
191 54 192 52 1 -1 -84 -134 -188 -295 -105 -161 -189 -294 -188 -295 2 -2
157 54 344 124 235 88 341 123 343 114 2 -7 -11 -65 -28 -129 -17 -64 -30
-120 -28 -125 2 -5 79 32 171 81 93 50 170 89 172 87 2 -2 -8 -81 -23 -175
l-28 -171 70 58 c39 33 181 151 316 263 135 113 246 202 248 197 1 -4 -22 -98
-53 -210 -31 -111 -54 -204 -52 -206 1 -2 63 37 137 86 l135 90 6 -107 c6 -95
17 -166 35 -225 5 -17 -44 -18 -930 -18 l-936 0 0 -305 0 -305 2320 0 2320 0
0 305 0 305 -919 0 -920 0 23 52 c25 56 61 191 72 271 3 26 8 47 11 47 3 0 57
-50 121 -110 l117 -110 3 216 c2 186 4 215 17 210 8 -3 155 -112 326 -241 171
-130 313 -234 315 -232 3 3 -14 105 -36 227 -23 122 -39 224 -37 227 3 2 159
-95 347 -217 187 -122 343 -221 345 -218 2 2 -49 121 -115 266 -65 144 -114
262 -109 262 4 0 162 -91 349 -201 188 -111 342 -200 344 -198 2 2 -137 213
-310 469 -173 256 -314 468 -314 473 0 4 10 1 23 -6 53 -34 699 -379 701 -376
2 2 -146 177 -329 389 -183 212 -327 386 -321 388 6 1 179 -38 385 -87 250
-59 368 -83 354 -72 -134 105 -1051 897 -1046 902 5 4 33 14 64 23 l56 16 -20
58 -21 59 -100 38 c-56 21 -107 40 -115 43 -10 4 -13 -3 -9 -30 4 -34 1 -37
-47 -63 l-50 -26 -347 85 c-192 47 -353 86 -360 86 -6 0 -32 -13 -57 -29 -43
-28 -50 -40 -105 -163 -62 -142 -89 -247 -103 -403 -7 -74 -11 -90 -25 -93
-15 -3 -18 4 -18 38 0 79 -49 130 -125 130 -31 0 -44 7 -78 46 -52 56 -105 69
-160 37 -33 -20 -34 -20 -45 -2 -15 24 -84 59 -117 59 -30 0 -61 -14 -92 -43
l-22 -20 -20 24 c-16 21 -28 24 -80 24 -56 0 -62 -2 -100 -39 -54 -53 -99
-140 -107 -209 -4 -32 -11 -57 -16 -57 -15 0 -24 40 -43 185 -17 133 -21 148
-87 301 l-70 161 -61 25 -62 24 -240 -67 c-132 -38 -257 -68 -279 -69 l-39 0
5 69 c5 65 4 70 -19 80 -36 16 -46 14 -113 -25 -60 -36 -62 -37 -103 -23 l-42
13 34 4 c33 3 121 55 121 70 0 5 -5 13 -12 20 -16 16 -15 16 75 -12 l77 -24
115 36 115 36 -31 32 c-28 29 -32 54 -9 54 5 0 35 -16 68 -35 l60 -36 98 22
c55 13 100 23 102 24 1 1 -7 22 -17 46 l-20 44 29 110 28 110 1 -105 c1 -70 6
-120 17 -151 l17 -46 86 23 c126 35 122 31 77 70 l-39 34 28 0 c19 0 40 -11
61 -31 l31 -30 78 20 c43 11 81 25 85 32 4 6 16 52 26 100 10 49 20 89 23 89
3 0 42 -6 87 -14 69 -12 95 -13 185 -1 150 21 151 21 138 -11 -5 -15 -7 -29
-4 -32 3 -3 40 5 84 16 101 28 103 28 90 -4 -5 -15 -8 -28 -7 -29 2 -1 33 -12
70 -24 l68 -23 30 22 c16 12 30 23 30 25 0 2 -16 31 -36 65 l-37 61 17 192 18
192 -36 230 c-20 127 -38 238 -40 247 -2 9 12 35 31 58 l35 41 -36 60 -36 60
0 167 0 168 -73 72 -72 72 -185 -2 c-102 -1 -238 -4 -302 -8z m444 -143 c44
-19 87 -63 109 -112 15 -33 19 -66 19 -182 l0 -143 -153 0 -154 0 -6 105 c-4
58 -13 121 -21 140 -13 30 -20 35 -47 35 l-32 0 7 -157 c4 -86 9 -160 11 -164
3 -4 62 -28 132 -54 159 -58 189 -74 235 -122 40 -42 53 -80 63 -192 l6 -74
-33 7 c-78 16 -108 14 -43 -2 63 -16 70 -20 73 -44 3 -25 0 -27 -65 -41 -176
-40 -234 -50 -240 -43 -4 4 -9 61 -10 126 -1 66 -6 128 -12 138 -6 11 -59 39
-128 67 -148 60 -223 97 -245 122 -32 35 -46 88 -53 198 -3 61 -10 145 -16
188 -10 90 -6 103 46 143 31 23 52 28 158 40 67 7 151 20 187 28 72 17 162 14
212 -7z m-900 -427 c40 -120 57 -184 54 -205 -7 -36 105 -400 127 -418 13 -10
80 -207 71 -207 -1 0 -31 45 -65 100 -34 55 -66 100 -71 100 -5 0 -7 -3 -5 -7
98 -175 134 -250 167 -342 22 -62 40 -116 40 -121 0 -6 -13 -10 -30 -10 -19 0
-30 -5 -30 -14 0 -11 -15 -13 -67 -9 -148 9 -149 9 -162 56 -7 23 -22 72 -33
110 l-20 67 -60 0 -60 0 7 -106 c7 -101 7 -106 -11 -101 -11 3 -47 9 -82 12
-35 4 -62 10 -60 15 2 4 37 87 78 183 l75 177 33 0 c29 0 32 3 32 30 0 30 1
30 54 30 39 0 55 4 60 15 4 12 -6 15 -59 15 -65 0 -65 0 -65 28 0 16 11 57 25
92 14 36 24 69 21 75 -2 5 0 17 5 26 5 10 1 19 -12 27 -17 11 -19 9 -19 -10 0
-12 -12 -60 -26 -107 l-27 -86 -38 150 c-21 83 -45 164 -53 180 -9 17 -22 50
-30 75 l-14 45 -1 -38 c-1 -20 3 -45 9 -55 5 -9 18 -106 28 -214 l18 -197 -76
-6 c-41 -3 -100 -8 -131 -11 l-57 -6 -6 159 c-4 87 -12 190 -18 228 -10 64
-24 364 -16 366 2 0 38 6 81 13 l79 13 22 -36 c12 -20 54 -91 92 -158 47 -84
75 -123 87 -123 10 0 17 -8 17 -20 0 -17 6 -20 43 -18 34 1 36 2 11 5 -23 3
-35 12 -47 38 -9 19 -57 100 -108 180 -50 80 -90 148 -88 150 2 1 17 5 34 7
28 3 30 0 64 -84 19 -49 36 -86 38 -84 2 2 -10 42 -27 91 -17 48 -30 88 -28
90 6 6 123 23 147 21 22 -1 29 -16 83 -176z m-1002 -195 c29 -69 51 -127 49
-129 -7 -6 -401 -47 -406 -42 -7 6 -27 166 -22 171 5 4 311 123 320 124 3 1
30 -55 59 -124z m-531 -147 c22 -35 38 -64 36 -66 -2 -2 -88 -15 -191 -28
-152 -20 -189 -23 -195 -12 -21 33 -6 44 144 104 84 34 155 62 159 63 4 0 25
-27 47 -61z m596 -25 c88 -216 165 -442 165 -482 -1 -64 -46 -540 -52 -546 -3
-3 -67 154 -143 347 -76 194 -140 355 -141 357 -15 17 -2 -45 70 -354 l82
-350 32 -10 c50 -15 35 -35 -48 -65 l-75 -28 -35 61 c-26 45 -44 64 -65 70
-26 7 -51 45 -184 268 -84 143 -156 258 -159 255 -8 -9 169 -441 188 -456 17
-14 90 -204 90 -235 0 -14 -232 -117 -241 -107 -4 4 -39 95 -79 202 -39 107
-81 202 -91 212 -17 14 -313 727 -306 734 2 2 92 14 200 27 l198 23 122 -189
c66 -104 123 -185 124 -180 2 4 -14 96 -36 203 -22 107 -39 196 -38 196 1 1
92 15 202 31 110 17 203 31 206 32 4 0 10 -7 14 -16z m1565 -23 c0 -16 -3 -30
-7 -30 -5 0 -57 13 -118 29 l-110 29 118 1 117 1 0 -30z m-90 -38 l134 -27 7
-40 c4 -22 10 -73 14 -112 l7 -73 -38 -1 -39 -1 32 -10 c20 -7 34 -19 37 -34
14 -54 82 -51 88 3 l3 28 155 0 155 0 3 -27 c9 -79 -56 -175 -133 -197 -24 -6
-130 -11 -260 -11 -193 0 -225 3 -261 19 -43 20 -81 61 -64 71 5 3 6 29 1 64
-7 53 -6 58 13 66 21 9 21 9 -1 9 -22 1 -33 26 -14 33 5 2 6 59 3 136 -6 114
-5 132 8 131 8 0 76 -12 150 -27z m550 -202 l0 -50 -160 0 -160 0 0 24 c0 22
7 24 123 45 67 13 127 24 132 26 6 2 22 4 38 4 26 1 27 -1 27 -49z m-1270 -50
c0 -11 7 -20 15 -20 8 0 15 -3 15 -7 0 -5 -34 -93 -76 -196 -75 -183 -78 -188
-103 -183 -14 3 -45 8 -68 11 l-43 7 0 193 0 193 68 7 c37 3 76 7 87 9 11 2
39 4 63 5 36 1 42 -2 42 -19z m-451 -378 c50 -117 91 -214 91 -216 0 -8 -252
-117 -258 -112 -3 3 10 130 28 281 18 152 37 272 41 268 4 -4 49 -104 98 -221z
m296 -51 c3 -5 -5 -30 -17 -55 -19 -41 -26 -46 -55 -46 l-33 0 0 55 0 55 49 0
c28 0 52 -4 56 -9z m164 -7 c26 -5 31 -11 31 -35 0 -15 -4 -30 -8 -33 -12 -7
-194 -38 -198 -33 -2 2 5 27 17 55 l22 52 52 0 c29 0 67 -3 84 -6z m261 -33
c36 -7 39 -9 15 -10 -16 -1 -47 -4 -67 -7 -31 -5 -38 -4 -38 10 0 18 19 19 90
7z m-141 -423 c0 -13 -6 -84 -12 -158 l-12 -134 -245 -53 c-135 -29 -253 -52
-262 -50 -15 2 -10 12 24 52 l41 50 -60 -58 c-54 -52 -68 -60 -138 -78 -43
-11 -84 -18 -91 -15 -7 3 -16 1 -19 -4 -9 -15 -45 -12 -44 3 0 6 31 73 67 147
l67 135 330 91 c182 51 336 92 343 93 6 1 12 -9 11 -21z m1971 -68 c183 -44
334 -81 335 -82 9 -12 116 -281 113 -283 -4 -4 -700 131 -727 140 -9 4 2 23
35 63 51 60 38 55 -34 -12 -35 -34 -44 -38 -52 -26 -17 27 -11 39 35 66 56 32
59 42 5 14 -49 -25 -50 -25 -50 4 0 19 6 26 28 29 25 4 25 4 -5 6 -30 1 -33 4
-33 35 0 18 -3 54 -6 80 -6 37 -4 46 8 46 9 0 165 -36 348 -80z m-2806 -311
l-55 -111 16 -155 c9 -85 15 -156 13 -158 -5 -6 -462 -63 -467 -59 -5 5 535
594 545 594 2 0 -21 -50 -52 -111z m888 -407 c49 -301 71 -455 64 -458 -20 -7
-751 -163 -781 -166 l-29 -3 -67 430 c-37 237 -66 431 -65 432 6 7 793 229
797 224 4 -3 40 -210 81 -459z m2012 363 c208 -35 379 -65 381 -67 2 -2 -27
-205 -64 -453 -63 -418 -69 -450 -87 -448 -10 1 -58 9 -106 19 l-87 18 -353
-92 c-194 -50 -354 -90 -355 -88 -2 1 2 16 7 33 12 34 -24 24 412 115 115 24
208 46 208 49 0 21 -83 13 -318 -33 -145 -28 -265 -48 -268 -45 -3 3 -1 14 5
25 9 16 39 23 221 47 115 16 210 32 210 37 0 12 -80 10 -220 -7 -69 -8 -139
-15 -157 -15 -31 0 -31 1 -20 30 l11 30 96 1 95 1 -84 20 -83 20 5 37 c3 20
11 72 17 117 l12 80 114 24 c62 13 112 26 110 28 -2 2 -49 -2 -105 -8 -55 -7
-104 -10 -108 -8 -5 1 -4 28 1 58 5 30 11 49 13 43 3 -10 37 -13 126 -12 129
1 114 9 -45 24 -71 6 -78 9 -78 28 0 12 14 122 32 244 l31 222 26 -5 c14 -3
196 -34 405 -69z m-1258 53 c44 -20 53 -56 37 -156 -7 -48 -16 -150 -19 -227
-6 -121 -9 -143 -27 -162 -28 -32 -77 -39 -120 -18 -51 24 -69 55 -56 94 6 17
8 60 5 98 -13 162 -16 146 29 161 29 10 53 11 88 4 26 -5 47 -7 47 -5 0 13
-77 33 -126 33 l-56 0 7 43 c19 114 104 174 191 135z m1972 -246 c155 -135
281 -246 279 -248 -2 -2 -118 9 -258 25 -140 16 -255 28 -256 27 -2 -1 87
-110 197 -242 110 -131 200 -242 200 -246 0 -6 -215 94 -379 176 -40 21 -74
36 -76 34 -2 -2 89 -158 201 -348 247 -416 226 -380 217 -380 -4 0 -109 54
-232 120 -123 66 -226 119 -228 117 -2 -2 35 -116 82 -252 47 -136 84 -249 82
-251 -2 -2 -124 70 -270 160 -230 142 -267 162 -267 143 0 -12 11 -92 24 -177
13 -85 23 -156 21 -158 -1 -1 -137 79 -301 178 -183 111 -300 176 -302 168 -1
-7 13 -119 32 -248 18 -129 32 -237 29 -240 -3 -3 -46 38 -96 90 -82 84 -95
103 -115 165 -33 98 -101 240 -157 326 l-47 73 -10 182 -9 182 43 64 c24 36
48 73 55 84 10 16 12 10 11 -36 0 -31 10 -142 23 -247 l23 -190 40 -22 c28
-14 149 -40 379 -81 186 -33 346 -60 355 -60 18 0 322 274 322 290 0 4 29 222
65 484 l65 475 -25 57 c-14 31 -25 58 -25 61 0 9 36 -20 308 -255z m-2199 217
c26 -16 32 -24 27 -42 -4 -12 -12 -51 -18 -87 -18 -116 -16 -110 -49 -110 -33
0 -83 -22 -115 -52 -26 -24 -30 -19 -38 53 -7 53 -6 57 16 63 13 3 43 6 68 6
59 1 32 18 -40 27 -27 3 -50 10 -50 15 0 25 34 85 66 114 42 40 82 44 133 13z
m468 -31 c49 -46 54 -180 13 -356 -28 -118 -49 -145 -113 -145 -79 0 -87 14
-87 155 l0 119 46 20 c32 15 61 20 99 17 29 -1 51 1 48 6 -12 18 -75 36 -129
36 l-57 0 6 48 c3 26 11 61 19 76 25 55 107 68 155 24z m156 -80 c37 -14 53
-51 49 -116 l-3 -52 -34 25 c-18 14 -49 29 -69 32 -36 6 -36 6 -36 57 0 77 14
84 93 54z m-624 -155 c28 -23 36 -76 22 -145 -15 -70 -66 -132 -135 -164 l-51
-24 38 0 c28 0 37 -4 37 -17 0 -15 3 -14 18 5 17 22 20 23 87 12 127 -20 185
-73 185 -169 0 -62 -19 -112 -51 -135 l-23 -16 35 0 c28 0 39 -6 49 -26 14
-24 14 -25 22 -5 4 12 11 21 16 21 23 0 33 -32 30 -97 -3 -73 -10 -79 -63 -58
-11 5 10 -13 48 -38 37 -26 73 -47 79 -47 7 0 2 7 -10 16 -20 14 -22 23 -22
125 0 88 3 111 15 115 10 4 2 13 -27 28 -52 26 -68 54 -68 125 0 62 26 113 68
135 15 8 68 17 117 21 114 8 148 19 179 56 14 16 32 29 42 29 15 0 16 -8 11
-61 -7 -77 -44 -153 -109 -224 -33 -37 -45 -55 -34 -55 29 0 38 -50 43 -237 4
-133 9 -180 18 -177 13 5 113 -198 144 -295 36 -111 44 -181 32 -275 -12 -91
-42 -213 -67 -276 -15 -37 -19 -40 -55 -40 l-39 0 -1 48 c0 26 -7 70 -14 97
l-13 50 -1 -51 c0 -28 -4 -72 -7 -98 l-7 -46 -172 0 -172 0 4 53 c9 110 23
157 61 200 l37 42 -40 -32 c-40 -32 -110 -103 -155 -158 -13 -16 -2 -8 25 18
65 65 78 52 45 -46 l-25 -72 -147 -3 -146 -3 -6 28 c-18 86 -26 261 -16 361
15 164 50 265 137 395 38 57 48 67 53 51 11 -31 23 78 25 234 1 102 6 146 14
152 9 5 3 10 -16 14 -50 13 -130 84 -190 168 -34 48 -82 100 -112 123 l-53 40
4 97 c5 108 22 148 62 148 38 0 89 21 121 50 58 53 89 61 124 33z m632 -19
c26 -23 24 -59 -7 -124 -33 -71 -60 -100 -95 -100 -42 0 -54 30 -35 88 9 26
20 72 26 101 6 30 15 58 21 62 16 9 67 -6 90 -27z m-841 -4 c0 -17 -5 -30 -12
-31 -7 -1 -24 -2 -37 -2 -31 -2 -61 -44 -68 -95 -5 -40 -7 -42 -39 -42 -28 0
-34 4 -44 36 -15 43 -8 111 13 131 19 19 68 31 135 32 51 1 52 1 52 -29z
m1014 20 c21 -4 43 -15 47 -22 15 -23 9 -72 -14 -113 l-23 -40 -83 -3 c-96 -3
-88 -18 -54 115 l18 73 35 0 c19 0 53 -5 74 -10z m-2210 -359 c12 -100 22
-181 21 -181 -6 -4 -341 -57 -343 -55 -5 5 0 12 152 228 77 108 142 195 144
192 2 -2 14 -85 26 -184z m1236 -165 c19 -42 45 -77 76 -105 26 -22 50 -41 55
-41 14 0 32 -144 26 -211 -6 -67 -31 -134 -61 -158 -34 -28 -106 -160 -134
-244 -26 -76 -35 -92 -67 -114 -20 -14 -39 -22 -42 -19 -3 3 11 100 31 217 20
117 35 213 34 214 -2 2 -149 -129 -328 -290 -179 -161 -326 -288 -328 -281 -1
6 20 95 46 199 27 103 47 187 46 187 -2 0 -87 -66 -189 -146 -103 -80 -188
-144 -191 -141 -4 3 160 364 170 374 2 2 162 33 356 69 305 57 358 70 390 93
l37 26 13 210 c7 116 14 213 17 218 8 14 15 6 43 -57z m-1185 -227 c6 -45 10
-50 151 -169 79 -68 141 -127 136 -132 -14 -14 -586 -327 -591 -323 -2 3 78
113 178 246 99 133 179 244 177 246 -2 2 -82 -10 -177 -27 -95 -17 -179 -30
-187 -28 -8 2 50 69 140 162 l153 159 7 -44 c3 -24 9 -65 13 -90z m774 57 c-2
-2 -140 -37 -307 -77 l-302 -73 -27 27 c-15 14 -25 28 -22 30 5 5 602 94 638
96 13 1 22 -1 20 -3z m-31 -68 c-4 -13 -460 -135 -509 -137 -24 -1 -58 23 -47
34 6 6 508 113 536 114 15 1 22 -4 20 -11z m-79 -62 c-2 -2 -92 -36 -199 -75
l-195 -71 -17 22 c-10 13 -18 26 -18 29 0 3 91 26 203 51 196 45 235 52 226
44z m730 -1209 c47 -40 92 -77 99 -81 8 -5 48 21 112 73 l99 82 115 -3 115 -3
-164 -135 -165 -135 0 -102 0 -103 -95 0 -95 0 0 103 0 102 -168 132 -167 132
-3 -44 -3 -45 -232 0 c-221 0 -235 -1 -277 -22 -54 -27 -78 -79 -66 -142 16
-83 71 -106 254 -106 l122 0 0 46 0 46 -120 -7 -120 -8 0 57 0 56 218 -2 217
-3 0 -145 0 -145 -255 -3 c-273 -3 -330 3 -411 44 -160 80 -168 293 -14 382
87 49 104 51 524 51 l394 1 86 -73z m930 -92 c58 -91 108 -165 112 -165 4 0
51 74 104 165 l97 165 139 0 139 0 0 -240 0 -240 -90 0 -90 0 0 163 0 162 -97
-162 -98 -163 -96 0 -97 0 -98 156 -99 157 -5 -154 -5 -154 -97 -3 -98 -3 0
241 0 240 138 0 137 0 104 -165z"/>
<path d="M3578 4993 c7 -3 16 -2 19 1 4 3 -2 6 -13 5 -11 0 -14 -3 -6 -6z"/>
<path d="M3618 4983 c6 -2 18 -2 25 0 6 3 1 5 -13 5 -14 0 -19 -2 -12 -5z"/>
<path d="M2000 3645 c0 -8 7 -15 15 -15 8 0 15 7 15 15 0 8 -7 15 -15 15 -8 0
-15 -7 -15 -15z"/>
<path d="M2460 3350 c0 -11 7 -20 15 -20 8 0 15 9 15 20 0 11 -7 20 -15 20 -8
0 -15 -9 -15 -20z"/>
<path d="M2120 2920 c0 -13 7 -20 20 -20 13 0 20 7 20 20 0 13 -7 20 -20 20
-13 0 -20 -7 -20 -20z"/>
<path d="M4417 3114 c-9 -10 4 -34 19 -34 8 0 14 9 14 20 0 19 -19 27 -33 14z"/>
<path d="M3212 3108 c-2 -44 -5 -49 -46 -78 -25 -16 -50 -30 -56 -30 -16 0
-32 50 -25 80 4 19 3 21 -5 10 -15 -23 -12 -86 5 -100 21 -17 60 -5 101 33 33
30 35 36 31 82 l-3 50 -2 -47z"/>
<path d="M3475 2338 c37 -20 75 -61 76 -82 1 -17 2 -18 6 -3 3 11 14 17 31 17
l27 1 -30 13 c-16 8 -45 26 -64 40 -19 14 -42 26 -50 26 -12 -1 -11 -3 4 -12z"/>
<path d="M3595 1739 c-22 -23 -78 -75 -125 -116 -47 -41 -98 -91 -114 -111
l-30 -37 30 26 c16 14 67 58 114 99 87 75 116 104 151 153 29 38 19 34 -26
-14z"/>
<path d="M3671 1734 c-16 -20 -21 -40 -20 -83 l1 -56 12 62 c7 34 18 69 26 78
7 8 10 18 8 21 -3 3 -15 -7 -27 -22z"/>
<path d="M3592 1610 c14 -22 24 -19 15 5 -4 8 -11 15 -17 15 -6 0 -6 -7 2 -20z"/>
<path d="M2910 5933 c-124 -92 -120 -87 -105 -171 6 -31 8 -33 38 -27 18 4 37
12 43 19 11 11 147 267 142 265 -2 0 -55 -39 -118 -86z"/>
<path d="M4780 5871 l0 -98 166 -7 c91 -4 168 -6 170 -4 2 3 -22 39 -53 81
l-57 76 -108 26 c-60 14 -111 25 -113 25 -3 0 -5 -44 -5 -99z"/>
<path d="M3890 5904 c0 -3 13 -22 29 -42 l29 -37 -16 -140 c-9 -79 -12 -153
-8 -170 l8 -30 24 29 c14 15 26 27 28 25 2 -2 13 -137 25 -299 l23 -296 -37
-92 -37 -91 19 -188 c17 -175 20 -188 38 -186 11 1 49 -20 85 -46 63 -46 67
-47 126 -43 58 3 64 6 107 50 l45 47 82 470 c45 259 83 477 86 485 2 9 19 20
36 25 l33 10 21 128 c13 82 27 134 37 144 9 9 18 15 21 12 2 -2 7 -86 11 -186
l8 -182 -93 -370 c-81 -323 -95 -371 -111 -371 -18 0 -19 -10 -19 -134 l0
-133 -65 -18 c-63 -17 -65 -18 -65 -49 1 -26 10 -38 63 -77 34 -25 83 -53 109
-62 l48 -16 39 45 c35 40 61 56 61 37 0 -5 -14 -26 -30 -47 -17 -22 -28 -41
-26 -44 3 -2 22 -8 43 -12 33 -8 44 -6 77 17 36 23 49 26 155 28 64 1 127 5
141 9 14 4 3 -6 -25 -23 -48 -30 -53 -31 -125 -25 -75 6 -75 5 -97 -24 l-22
-30 90 -31 90 -30 56 34 c63 38 79 38 43 0 -13 -14 -20 -28 -17 -32 4 -4 105
-43 224 -88 196 -74 217 -85 232 -113 11 -22 81 -75 240 -182 123 -83 224
-150 226 -148 1 2 55 136 120 298 l118 295 -20 77 -19 77 58 58 c57 57 59 61
137 273 l79 215 20 190 c12 105 18 193 14 197 -4 3 -170 71 -369 151 l-363
145 -18 -41 c-10 -23 -40 -90 -66 -148 l-48 -106 -59 -17 -59 -16 -80 -160
-80 -160 0 -89 0 -89 -77 -30 c-151 -57 -157 -53 -38 24 l75 49 0 94 c0 91 3
104 110 449 61 195 110 360 110 367 0 7 -19 20 -41 31 -32 14 -46 28 -61 63
-11 25 -20 46 -21 47 -1 1 -139 14 -307 29 -168 14 -315 28 -327 31 -22 4 -23
9 -23 99 l0 95 -415 0 c-228 0 -415 -3 -415 -6z m380 -119 c157 -14 291 -25
298 -25 9 0 12 -26 12 -96 l0 -96 -74 7 -74 7 -6 -54 c-6 -57 -36 -595 -36
-640 0 -23 -4 -28 -25 -28 l-25 0 0 -125 c0 -69 -2 -125 -4 -125 -2 0 -32 9
-67 19 -35 11 -104 31 -152 46 l-88 26 3 87 c3 82 4 87 26 90 21 3 22 8 22 94
0 89 0 90 23 85 l22 -6 -24 20 -24 19 12 193 c6 105 14 224 17 264 l6 72 -71
7 -71 7 0 88 c0 49 3 89 8 89 4 0 135 -11 292 -25z m773 -247 l227 -63 -6 -77
c-5 -56 -4 -78 5 -78 6 0 11 -7 11 -16 0 -9 -6 -14 -12 -12 -56 21 -150 49
-152 47 -2 -2 -20 -69 -40 -149 -21 -80 -41 -148 -45 -152 -10 -11 -271 164
-271 182 0 9 15 85 34 170 30 135 32 157 20 171 -15 17 -19 39 -6 39 4 0 109
-28 235 -62z m969 -469 c123 -78 234 -151 246 -163 59 -53 85 -179 43 -208
-11 -8 -25 -26 -32 -42 -8 -17 -19 -26 -28 -23 -141 38 -281 83 -281 89 0 5
11 13 24 19 51 24 62 105 19 145 l-27 25 -79 -152 -79 -151 -64 63 c-36 35
-62 69 -59 76 2 7 -2 13 -9 13 -8 0 -23 3 -33 7 -10 4 21 -35 69 -87 70 -76
85 -97 75 -108 -15 -19 33 -62 71 -62 20 0 53 -24 126 -90 54 -50 101 -90 105
-90 3 0 -40 43 -96 96 l-103 96 42 76 c23 42 42 78 43 79 2 4 285 -74 291 -79
9 -9 -102 -221 -128 -245 -25 -24 -128 -49 -155 -39 -8 4 -3 -7 11 -25 52 -62
48 -137 -14 -268 -44 -91 -54 -102 -80 -78 -8 6 -6 2 5 -11 19 -23 19 -24 0
-58 -16 -29 -21 -33 -30 -21 -9 12 -12 12 -23 1 -10 -11 -8 -15 13 -20 14 -3
25 -11 25 -18 0 -20 -59 -137 -67 -133 -59 32 -255 152 -258 158 -5 7 31 99
38 99 2 0 37 -14 77 -30 40 -17 75 -28 77 -26 2 2 -37 21 -87 42 -49 21 -90
43 -90 49 0 25 50 115 65 115 17 0 20 16 5 25 -6 4 -4 18 6 37 l16 31 18 -28
c10 -15 26 -45 36 -66 9 -22 21 -39 26 -39 13 0 9 12 -21 64 l-29 49 29 62
c32 68 29 103 -9 124 -17 9 -24 5 -47 -30 -14 -23 -28 -39 -30 -37 -10 11
-175 319 -175 327 0 6 19 49 42 95 34 70 47 86 67 88 25 3 25 4 -11 27 -21 13
-35 27 -32 32 3 6 12 5 21 -2 10 -9 16 -10 21 -2 4 7 50 90 102 187 52 96 96
176 97 176 1 0 102 -64 225 -141z m-1059 -29 l206 -145 1 -52 c0 -28 -4 -54
-9 -57 -5 -3 -46 5 -92 19 -46 13 -85 23 -86 21 -2 -2 -23 -99 -46 -217 l-43
-214 -39 -3 c-46 -4 -73 -22 -33 -22 34 0 231 -40 240 -49 6 -5 -26 -149 -35
-158 -4 -4 -459 105 -465 112 -12 12 -5 104 10 118 8 8 45 177 87 398 41 211
76 388 78 392 7 11 -2 17 226 -143z m173 -61 c46 -17 51 -22 46 -44 -2 -14 -6
-25 -9 -25 -2 0 -34 23 -71 51 -68 52 -64 54 34 18z m-939 -354 c65 -14 126
-28 136 -31 14 -4 17 -17 17 -76 l0 -70 -147 7 c-82 4 -151 9 -155 12 -5 2 -8
44 -8 94 0 105 -13 100 157 64z m1338 -163 l87 -164 -52 -126 c-29 -70 -56
-131 -60 -135 -9 -10 -285 107 -285 120 0 10 217 474 220 471 1 -2 42 -76 90
-166z m-169 -397 c76 -36 138 -70 136 -76 -1 -6 -13 -31 -25 -55 l-22 -43
-127 82 c-71 45 -128 87 -128 94 0 14 18 63 23 63 2 0 66 -29 143 -65z"/>
<path d="M5790 3870 c8 -5 20 -10 25 -10 6 0 3 5 -5 10 -8 5 -19 10 -25 10 -5
0 -3 -5 5 -10z"/>
<path d="M1384 5868 c3 -13 6 -30 6 -39 0 -11 12 -19 36 -24 20 -3 38 -4 41
-2 2 3 -1 23 -8 46 -11 38 -15 41 -47 41 -31 0 -34 -2 -28 -22z"/>
<path d="M2645 5854 l-90 -33 67 6 c65 6 67 5 111 -31 l46 -37 -19 61 c-10 34
-20 63 -22 65 -2 2 -43 -12 -93 -31z"/>
<path d="M3850 5728 c1 -157 1 -164 26 -203 22 -35 25 -36 20 -13 -4 15 -2 89
4 164 l10 137 -26 39 c-15 21 -28 38 -30 38 -2 0 -4 -73 -4 -162z"/>
<path d="M5181 5788 l29 -58 89 0 89 0 24 -61 c22 -60 25 -62 72 -76 27 -8 52
-11 56 -6 9 9 50 136 45 141 -1 1 -99 29 -218 61 l-216 58 30 -59z"/>
<path d="M1707 5814 l-28 -15 53 -39 c29 -21 54 -37 56 -36 4 4 -42 106 -48
105 -3 0 -18 -7 -33 -15z"/>
<path d="M2095 5760 c-88 -4 -172 -8 -186 -9 l-26 -1 31 -140 31 -141 54 -24
c30 -14 56 -23 59 -20 3 2 -2 66 -11 142 -8 76 -12 141 -9 144 4 3 52 11 107
18 55 7 110 15 123 18 26 6 30 24 5 21 -10 -1 -90 -5 -178 -8z"/>
<path d="M2868 5709 c-20 -10 -39 -22 -41 -26 -3 -5 7 -87 22 -183 l27 -175
23 170 c15 113 20 181 14 202 l-8 31 -37 -19z"/>
<path d="M1665 5712 c136 -123 207 -183 211 -180 2 3 -5 34 -16 70 -19 64 -21
66 -63 77 -23 6 -64 18 -92 26 -27 8 -45 11 -40 7z"/>
<path d="M5556 5466 c-31 -96 -56 -177 -56 -180 0 -3 29 -6 65 -6 l64 0 10 38
c6 20 15 58 22 85 6 26 15 47 19 47 4 0 68 -25 141 -55 73 -30 134 -53 136
-51 4 4 -333 296 -341 296 -2 0 -30 -78 -60 -174z"/>
<path d="M2943 5610 c-13 -29 -48 -369 -38 -378 4 -4 40 -14 82 -24 41 -9 71
-13 67 -9 -5 4 -28 22 -51 40 l-43 32 -2 182 c-3 149 -5 177 -15 157z"/>
<path d="M4661 5484 l-13 -132 -38 -6 -38 -6 -12 -87 c-6 -49 -14 -96 -17
-106 -4 -16 -1 -16 49 3 29 11 53 20 54 20 1 0 11 36 24 79 21 74 22 89 14
223 l-9 143 -14 -131z"/>
<path d="M5950 5421 l95 -103 125 -44 c69 -24 134 -47 145 -50 15 -5 -350 234
-445 291 -8 5 28 -38 80 -94z"/>
<path d="M3909 5402 l-45 -52 24 -203 c13 -111 26 -209 29 -217 3 -8 21 41 40
110 37 135 38 164 10 340 l-12 74 -46 -52z"/>
<path d="M1962 5408 c3 -7 27 -100 54 -205 27 -106 52 -193 55 -193 3 0 18 22
32 49 21 38 24 50 13 54 -9 4 -18 39 -26 109 -7 57 -16 110 -21 120 -11 20
-113 84 -107 66z"/>
<path d="M6486 5403 c-16 -16 -4 -61 23 -87 l29 -28 12 36 c6 20 9 40 5 46 -9
15 -61 40 -69 33z"/>
<path d="M5514 5227 l-70 -21 -42 -150 c-23 -82 -40 -152 -38 -153 2 -2 25 38
52 89 44 84 54 95 103 123 47 26 56 36 67 75 16 52 17 60 7 59 -5 0 -40 -10
-79 -22z"/>
<path d="M370 5219 c-41 -11 -81 -22 -88 -24 -9 -3 6 -27 44 -68 l56 -64 94
-12 c131 -16 135 -15 91 15 -29 19 -47 45 -72 100 -19 41 -37 74 -42 73 -4 0
-42 -10 -83 -20z"/>
<path d="M6460 5206 c0 -20 7 -29 27 -37 50 -19 65 -16 86 19 l19 32 -44 0
c-23 0 -53 3 -65 6 -20 5 -23 2 -23 -20z"/>
<path d="M2933 5060 c53 -124 63 -131 66 -44 1 17 8 38 17 45 15 12 14 14 -7
20 -22 5 -19 8 28 35 29 16 53 32 53 35 0 4 -37 10 -82 13 -46 4 -93 10 -105
13 -20 4 -18 -4 30 -117z"/>
<path d="M4580 5093 c-30 -13 -56 -26 -58 -28 -4 -3 -72 -422 -72 -441 0 -9
11 -14 30 -14 17 0 30 1 30 3 0 2 29 116 64 255 35 139 64 252 63 251 -1 0
-27 -12 -57 -26z"/>
<path d="M3951 4925 c-25 -100 -38 -184 -47 -295 l-11 -155 36 -50 c46 -64 47
-57 22 159 l-19 168 29 80 c25 68 29 93 27 156 l-3 76 -34 -139z"/>
<path d="M6515 5028 c-2 -7 -13 -68 -25 -135 l-21 -122 23 -45 23 -45 103 151
c57 83 101 152 98 155 -3 4 -181 52 -194 53 -1 0 -4 -6 -7 -12z"/>
<path d="M6373 4443 l-71 -178 25 -13 c14 -8 26 -12 27 -10 2 2 39 74 83 160
l81 156 -32 31 c-18 17 -34 31 -37 31 -3 0 -37 -80 -76 -177z"/>
<path d="M4435 4567 c-3 -12 -11 -53 -19 -91 -14 -67 -14 -70 7 -87 32 -27 37
-24 37 25 0 23 3 70 6 103 5 50 4 61 -10 66 -11 4 -17 0 -21 -16z"/>
<path d="M3190 4323 c-6 -32 -13 -64 -15 -70 -3 -7 -1 -13 4 -13 9 0 315 71
318 73 1 1 4 14 8 30 8 32 8 32 -100 16 -71 -11 -103 -8 -187 17 -13 4 -19 -6
-28 -53z"/>
<path d="M4347 4336 c-29 -36 -33 -45 -21 -50 22 -9 53 -6 97 7 l38 12 -38 37
-39 38 -37 -44z"/>
<path d="M3977 4313 c-26 -15 -44 -30 -40 -33 8 -7 335 -70 361 -70 6 0 12 11
12 25 0 24 -2 25 -73 25 -69 0 -78 3 -136 40 -34 22 -65 40 -69 40 -4 0 -28
-12 -55 -27z"/>
<path d="M3628 4309 c-59 -21 -56 -17 -95 -116 -4 -10 34 -13 171 -13 l176 0
0 33 c0 33 0 33 -90 60 -61 19 -90 32 -90 42 0 18 -1 18 -72 -6z"/>
<path d="M3353 4216 c-72 -17 -134 -34 -137 -37 -4 -3 19 -11 49 -18 47 -11
67 -10 134 4 75 17 79 19 85 48 3 17 5 31 4 32 -2 1 -62 -12 -135 -29z"/>
<path d="M3940 4196 l0 -33 74 -13 c71 -12 74 -14 114 -65 41 -52 41 -52 108
-58 37 -4 70 -5 72 -2 3 3 -18 145 -22 145 -1 0 -73 14 -161 30 -88 16 -166
30 -172 30 -8 0 -13 -13 -13 -34z"/>
<path d="M6248 4193 c-24 -20 -44 -38 -45 -38 -1 0 2 -25 5 -55 l7 -55 48 78
c26 43 47 82 47 87 0 23 -23 17 -62 -17z"/>
<path d="M2891 4121 l-164 -37 28 -22 c33 -26 28 -26 136 -6 80 14 90 19 130
60 24 24 41 44 39 43 -3 0 -79 -17 -169 -38z"/>
<path d="M3428 4123 c-81 -23 -88 -28 -88 -50 0 -23 3 -25 31 -19 17 3 64 6
103 6 93 0 105 8 80 51 -11 18 -24 33 -29 35 -6 1 -49 -10 -97 -23z"/>
<path d="M4362 4082 c4 -36 11 -69 15 -73 11 -9 253 -72 259 -67 5 5 -15 69
-25 80 -3 4 -40 14 -80 23 -62 13 -83 23 -126 59 l-51 44 8 -66z"/>
<path d="M3101 4101 c-29 -37 -34 -39 -136 -56 -69 -12 -105 -23 -105 -31 0
-7 3 -15 8 -17 4 -3 93 8 197 24 105 16 196 29 203 29 7 0 12 14 12 34 0 34 0
34 -63 45 -86 15 -81 16 -116 -28z"/>
<path d="M3852 4118 c3 -20 18 -27 118 -55 63 -17 116 -31 117 -29 1 1 -16 21
-40 43 -36 35 -52 42 -108 52 -88 15 -91 15 -87 -11z"/>
<path d="M3620 4125 c0 -3 13 -34 29 -69 l28 -63 149 -12 c82 -7 160 -15 172
-18 20 -5 23 -2 20 17 -2 18 -24 31 -123 70 -76 30 -121 54 -123 64 -3 13 -17
16 -78 16 -41 0 -74 -2 -74 -5z"/>
<path d="M1005 3889 c59 -118 108 -215 109 -216 12 -14 -11 139 -36 239 l-32
127 -61 27 c-33 14 -66 28 -73 31 -7 3 35 -91 93 -208z"/>
<path d="M2567 4055 c-49 -13 -90 -25 -93 -27 -2 -3 11 -18 29 -36 l32 -31
110 10 c61 6 116 13 124 15 21 7 -67 94 -94 93 -11 0 -60 -11 -108 -24z"/>
<path d="M2284 3968 c-80 -36 -93 -45 -101 -73 l-10 -32 136 47 c75 26 143 49
151 52 10 3 0 12 -27 26 -23 12 -46 22 -50 22 -4 0 -49 -19 -99 -42z"/>
<path d="M4716 3957 c4 -23 7 -42 8 -43 1 0 52 -19 114 -42 63 -24 130 -42
153 -42 39 0 40 1 37 32 -3 31 -4 32 -160 84 l-158 52 6 -41z"/>
<path d="M5391 3682 l44 -81 215 -107 c216 -107 260 -127 260 -119 0 2 -102
74 -226 161 -134 93 -229 166 -234 179 -5 13 -21 25 -37 29 -15 4 -37 10 -47
13 -16 4 -11 -10 25 -75z"/>
</g>
</svg>
