<?xml version="1.0" encoding="UTF-8"?>
<svg xmlns="http://www.w3.org/2000/svg" viewBox="0 0 2000 2000">
  <defs>
    <style>
      .cls-1 {
        fill: #fff;
      }

      .cls-2 {
        fill: #c11c1f;
      }

      .cls-3, .cls-4 {
        fill: #010000;
      }

      .cls-4 {
        stroke: #c11c1f;
        stroke-miterlimit: 10;
      }

      .cls-5 {
        fill: #e1e04c;
      }
    </style>
  </defs>
  <g id="cosas_negras" data-name="cosas negras">
    <polygon class="cls-3" points="74.19 516.2 109.29 554.6 181.69 563.4 152.09 545.4 132.49 501.4 74.19 516.2"/>
    <path class="cls-3" d="m1575.29,1168.47l223.47,52.8-310.27-263.74,37.8-10.66-11.8-35.17-67.73-25.9,2.4,21.33-26.67,14.94-205.07-50.14-27.2,17.34s-30.53,62.93-37.73,89.13c-7.2,26.2-12.4,91.8-12.4,91.8,0,0-2.8-.2-7.6-.2-.2-8,1.6-23.4-5.8-34.6-7.4-11.2-29-17-43-14-10.8-23-30.6-29-37.6-29s-17.6,2.6-27,11.6c-2.2-6-19.2-22.4-37.6-22.4s-33.2,17.2-33.2,17.2c0,0-4.2-14.6-29.8-14.6s-40.4,26-51.2,46.8c-10.8,20.8-6.8,40.8-6.8,40.8h-8l-12.8-92.8-38.93-89.73-35.87-15.2-136.53,38.13h-22.4l-.54-14.93,4.8-21.87-21.75-9.87-37.63,23.2-24.08-8.53h20.53l27.47-17.87-8-9.86,45.06,13.86,67.47-21.6-20-21.33,9.07-1.87,32.8,19.87,61.06-13.73-12.26-26.4,15.73-62.14-1.87,59.74,10.94,27.2,61.6-17.07-14.67-14.13-10.67-5.07h16.27l17.07,17.33,48.53-12.13,12.4-56.8,49.2,8,69.2-8.8-6,20.13,54.8-14.53-4.8,16,41.6,14.13,18.4-14.13-22-36.4,10.4-107.2-22.54-143.2,19.74-24.46-19.74-32.74-2.26-99.6-41.2-39.2-172.8,2-36.8,76.8,3.2,21.6,8,2.8v110s53.6,43.6,55.6,44c2,.4-42.4,10.4-42.4,10.4l16.8,1.33-18.93,18.94,4.13,79.33-51.6-124.8,6-17.2-28-137.2-29.6-19.6-101.6,9.6-2.4,9.2-71.22,17.2,22.42,148h8l-26.8,67.2-45.6-148.06s-71.6-54.74-71.6-56.87-131.6,52.53-131.6,52.53l-6.8,30.4-31.6-14.8-132,53.2s16,48.4,17.6,48.4,18.8,10,18.8,10l-66,3.6,110.4,240.67,47.4,16.13,39.27,111.07,40.26,25.06,138.4-49.33,17.87,12.53-22.13-.8-141.34,49.6-41.6-29.06-8.8,22.13,26.4,62.67,171.87-94.4,1.73,12.4-331.2,271.6,261.34-45.87-98.14,112.53,120.54-12.8-155.74,144,153.07-43.73-112.53,172.8,203.2-75.73-21.34,82.13,102.4-54.93-16.53,102.4,183.47-153.07-34.67,126.4s37.33-25.07,81.6-54.4c-5.87,36.8,14.4,109.07,14.4,109.07h260.27c27.2-43.47,34.13-116,34.13-116l71.47,67.2.53-128,189.33,143.46-25.6-137.6,204.27,132.8-71.47-158.93,208,122.67-187.2-277.34,217.07,117.34-198.4-230.4Zm-1189.6-30.27l156.8-170.8-32.4,64.8,9.2,89.2-133.6,16.8Zm50.8,114.8l85.6-120.8,12.8,104.4-98.4,16.4Zm19.6,224l108.8-145.2-114,20,87.2-91.2,6.4,50,83.6,71.6-172,94.8Zm455.73-100.53c-39.46,42.66-48,96.53-48,96.53l-24,16,22.4-130.13-190.4,171.2,29.34-117.34-113.6,89.07,51.73-109.33,202.13-37.87,21.34-15.47,8.53-125.33c5.6,4.53,9.5,15.9,16.67,32.4,7.16,16.5,32.93,29.47,32.93,29.47,0,0,20,67.73-9.07,100.8Zm684.67,35.73l-136.93-73.6,51.2,149.33-156.8-96.53,15.46,104.53-174.93-105.33,20.8,147.2s-32.8-33.87-53.07-54.4c-16-57.33-45.86-107.2-65.06-133.87-.27-29.6-3.47-88-5.87-104.26,17.87-18.14,30.8-46.27,30.8-46.27l-2,23.2,14.2,117,19.8,12,206.2,37.2,88.6-81.8,38-278.4-15.6-34.8,168.4,145.6-152-17.2,119.2,143.2-136.4-66,126,213.2Z"/>
    <polygon class="cls-4" points="320.49 959 318.49 918.2 300.09 845.4 253.29 824.6 320.49 959"/>
    <polygon class="cls-4" points="609.29 541 590.89 576.2 558.09 449.13 593.29 470.6 602.09 537 609.29 541"/>
    <polygon class="cls-4" points="554.49 438.2 591.29 455.8 581.69 368.6 655.82 358.6 655.82 351 536.49 355.4 554.49 438.2"/>
    <polygon class="cls-4" points="477.69 343.4 498.09 331.8 517.49 371.8 477.69 343.4"/>
    <polygon class="cls-4" points="467.89 362.8 526.69 380.4 541.89 428.6 467.89 362.8"/>
    <polygon class="cls-4" points="423.29 345.4 414.29 316.2 392.09 316.2 397.69 340.8 423.29 345.4"/>
    <polygon class="cls-4" points="855.56 598.07 858.22 558.6 867.29 549 855.56 546.07 891.02 526.87 821.69 519.13 855.56 598.07"/>
    <polygon class="cls-4" points="880.36 519.13 826.49 507.13 837.96 394.07 848.36 387.4 845.96 492.73 880.36 519.13"/>
    <polygon class="cls-4" points="821.69 486.87 836.36 382.33 830.76 361 804.62 375.93 821.69 486.87"/>
    <polygon class="cls-4" points="801.96 365.53 826.49 358.6 868.62 276.2 795.82 329.53 801.96 365.53"/>
    <polygon class="cls-4" points="795.82 357.53 783.82 315.4 715.02 340.47 766.49 334.6 795.82 357.53"/>
    <polygon class="cls-4" points="792.62 309.27 792.62 273.8 858.49 277.53 792.62 309.27"/>
    <polygon class="cls-4" points="764.09 285.8 778.22 251.4 750.76 255.4 747.02 280.47 764.09 285.8"/>
    <polygon class="cls-4" points="675.29 259.67 733.69 231.67 704.49 211.4 675.29 259.67"/>
    <polygon class="cls-4" points="689.16 309.27 667.82 273.8 633.42 259.67 648.89 298.33 689.16 309.27"/>
    <polygon class="cls-4" points="617.42 229.27 645.42 235.53 633.42 196.47 608.89 205 617.42 229.27"/>
    <polygon class="cls-4" points="973.57 263 1101.69 251.4 1100.09 298.6 1071.29 272.2 973.57 268.6 973.57 263"/>
    <polygon class="cls-4" points="1137.69 757.8 1110.89 722.2 1117.69 632.7 1140.49 540.2 1142.49 594.2 1124.89 642.6 1137.69 757.8"/>
    <polygon class="cls-4" points="1119.29 606.87 1142.49 519.13 1130.89 438.6 1102.49 471 1119.29 606.87"/>
    <polygon class="cls-4" points="1118.49 445 1112.89 417 1118.49 337.4 1097.29 309.27 1099.69 410.2 1118.49 445"/>
    <polygon class="cls-4" points="1176.49 852.2 1144.89 822.2 1100.49 815 1098.89 830.6 1176.49 852.2"/>
    <polygon class="cls-4" points="1149.29 869.4 1149.29 855.8 1079.69 828.6 1079.69 819.67 1031.29 819.67 1049.29 859.8 1149.29 869.4"/>
    <path class="cls-4" d="m1108.62,805.8v-20l-49.07-15.2v-10.4s-37.87,12-38.67,12.53-14.93,33.07-14.93,33.07h102.67Z"/>
    <polygon class="cls-4" points="1023.56 839.4 1009.69 812.47 953.96 828.2 952.62 843.4 1023.56 839.4"/>
    <polygon class="cls-4" points="995.02 805.8 999.02 784.73 908.09 805.8 948.62 816.2 995.02 805.8"/>
    <polygon class="cls-4" points="904.89 790.87 913.42 747.4 951.29 756.47 1005.96 748.47 1000.36 769.13 904.89 790.87"/>
    <polygon class="cls-4" points="813.42 849.27 819.29 860.73 937.96 843.4 937.96 822.33 895.82 815 875.69 837.87 813.42 849.27"/>
    <polygon class="cls-4" points="795.29 848.2 851.56 837.87 880.09 809.53 777.42 832.2 795.29 848.2"/>
    <polygon class="cls-4" points="800.76 861.8 769.42 831.13 702.49 848.2 724.36 869.4 800.76 861.8"/>
    <polygon class="cls-4" points="619.02 898.07 624.89 877.53 681.42 851.67 710.49 866.6 619.02 898.07"/>
    <polygon class="cls-4" points="1437.42 908.2 1437.42 886.87 1344.09 856.2 1348.36 882.2 1416.89 908.2 1437.42 908.2"/>
    <polygon class="cls-4" points="1329.16 877.8 1318.22 847.93 1272.89 838.6 1242.49 811 1247.29 856.2 1329.16 877.8"/>
    <polygon class="cls-4" points="1115.29 777.8 1152.79 757.8 1188.89 781 1230.76 781 1233.96 800.47 1115.29 777.8"/>
    <polygon class="cls-4" points="1123.56 788.73 1225.69 807.4 1233.96 852.2 1191.02 849.67 1167.02 819.67 1123.56 811 1123.56 788.73"/>
    <polygon class="cls-4" points="1229.49 773.4 1253.69 746.2 1277.49 771 1244.09 780 1229.49 773.4"/>
    <polygon class="cls-4" points="1274.09 755.8 1256.29 741.4 1267.29 687.4 1278.49 692 1274.09 755.8"/>
    <polygon class="cls-4" points="1268.89 683 1288.89 685 1326.69 536 1290.29 551.2 1268.89 683"/>
    <polygon class="cls-4" points="1334.09 397.8 1338.09 396.2 1341.49 479.6 1328.49 523.6 1296.36 536 1305.49 472.8 1326.69 469.4 1334.09 397.8"/>
    <polygon class="cls-4" points="1526.29 923.67 1556.36 931.4 1559.82 943.4 1694.49 1037.53 1692.09 1041 1551.29 972.2 1526.29 923.67"/>
    <polygon class="cls-4" points="1842.22 674.6 1863.29 698.33 1815.56 790.33 1798.76 782.07 1842.22 674.6"/>
    <polygon class="cls-4" points="1798.76 788.73 1806.01 797.27 1774.22 848.73 1771.02 812.47 1798.76 788.73"/>
    <polygon class="cls-4" points="1665.42 415.4 1822.76 515.6 1725.16 481.13 1665.42 415.4"/>
    <polygon class="cls-4" points="1524.09 619.67 1563.62 546.07 1592.89 532.2 1603.16 497 1554.49 511.67 1524.09 619.67"/>
    <polygon class="cls-4" points="1568.36 493.77 1603.16 384.88 1715.56 481.13 1621.69 443.47 1609.42 493.77 1568.36 493.77"/>
    <polygon class="cls-4" points="1469.89 327.8 1487.49 363.6 1539.29 365.4 1551.49 398.6 1583.69 408.8 1598.49 362.4 1469.89 327.8"/>
    <polygon class="cls-4" points="1365.42 292.47 1363.56 351.13 1468.09 356.73 1430.76 307.4 1365.42 292.47"/>
    <path class="cls-4" d="m1473.96,226.33l9.87,26.13s28.8,5.6,28,5.6-14.93-38.4-14.93-38.4l-22.93,6.67Z"/>
    <polygon class="cls-4" points="1440.03 242.13 1431.29 270.33 1399.56 270.33 1419.56 231.67 1440.03 242.13"/>
    <polygon class="cls-4" points="1384.09 235.4 1379.02 213.27 1352.36 217 1337.16 241.8 1384.09 235.4"/>
    <path class="cls-4" d="m1253.16,265.53c.27,1.07,96.8,0,96.8,0v34.4l-24.53-22.67-72.27-11.73Z"/>
    <polygon class="cls-4" points="1325.42 301.53 1316.89 292.47 1107.89 271.93 1107.89 304.47 1325.42 301.53"/>
    <polygon class="cls-4" points="1142.76 251.4 1155.29 241.8 1156.89 217.8 1134.49 234.6 1142.76 251.4"/>
    <polygon class="cls-4" points="1242.76 220.73 1250.76 236.2 1277.96 241.8 1268.89 211.67 1242.76 220.73"/>
    <polygon class="cls-4" points="1145.69 173 1159.56 199.4 1217.96 214.6 1194.22 195.93 1145.69 173"/>
    <polygon class="cls-4" points="1860.89 558.33 1847.29 637 1860.89 665.4 1923.29 574.2 1860.89 558.33"/>
    <polygon class="cls-4" points="1844.49 505 1844.49 521.8 1872.09 530.6 1885.29 508.6 1844.49 505"/>
    <polygon class="cls-4" points="1850.09 474.6 1868.09 490.2 1877.29 465.5 1852.09 451 1850.09 474.6"/>
    <polygon class="cls-4" points="1449.69 854 1433.29 874.2 1564.39 923.67 1570.49 939.8 1701.69 1028.2 1771.02 854 1759.29 811 1792.09 780 1837.69 656.6 1849.69 544.6 1636.49 459 1598.49 543.8 1564.39 553.4 1519.29 643 1518.09 696.2 1461.69 717 1509.69 685 1509.69 631.4 1574.89 421 1548.89 408.8 1536.89 382.2 1348.89 365.4 1349.96 309.27 1106.09 309.27 1126.69 335.8 1117.29 414.6 1122.49 435.8 1137.69 417.8 1150.49 587 1129.69 639.6 1140.89 754.4 1150.69 746.2 1189.09 774.6 1226.29 771.2 1251.89 744.2 1300.49 467.4 1318.92 464 1332.29 386.6 1340.29 380.6 1345.89 481.13 1293.09 695.2 1281.89 696.2 1280.69 772.2 1243.69 783 1243.69 800.47 1281.09 829.4 1309.09 838 1331.89 812 1337.49 811.8 1316.69 840.71 1345.28 847.12 1367.29 830.8 1413.69 833.6 1444.09 826.8 1416.49 841.6 1375.89 838.6 1360.29 857 1414.89 875 1449.69 854"/>
  </g>
  <g id="Blanco">
    <path class="cls-1" d="m757.58,984.47l-227.09,65.6,37.87,245.86,232.4-49.6-43.18-261.86Zm-146.36,173.33c4.24,0,7.67,3.43,7.67,7.67s-3.43,7.66-7.67,7.66-7.66-3.43-7.66-7.66,3.43-7.67,7.66-7.67Zm95.97-108.4c-3.59,0-6.5-2.91-6.5-6.5s2.91-6.5,6.5-6.5,6.5,2.91,6.5,6.5-2.91,6.5-6.5,6.5Z"/>
    <path class="cls-1" d="m570.22,939.67l-39.73,83.46,12-1.86,21.07-22.4-16,21.33,50.93-12.53,31.73-32.27,2.14,2.4-24,28.53,149.06-31.73,7.47-88.27-194.67,53.34Zm5.87,12.53c3.09,0,5.6,2.87,5.6,6.4s-2.51,6.4-5.6,6.4-5.6-2.87-5.6-6.4,2.51-6.4,5.6-6.4Z"/>
    <polygon class="cls-1" points="566.89 1000 608.89 970.2 625.09 961 605.89 969.2 566.89 997.2 566.89 1000"/>
    <polygon class="cls-1" points="661.89 1208.6 666.89 1208.6 669.69 1267.6 659.69 1267.6 661.89 1208.6"/>
    <polygon class="cls-1" points="651.29 1200.2 635.69 1274.6 623.29 1274.6 647.89 1198.2 651.29 1200.2"/>
    <polygon class="cls-1" points="637.29 1194 597.09 1269.8 588.69 1269.8 637.29 1194"/>
    <polygon class="cls-1" points="618.89 1183.6 576.69 1238.1 568.89 1238.1 618.89 1183.6"/>
    <polygon class="cls-1" points="577.29 1307.8 590.09 1323 768.09 1280 577.29 1307.8"/>
    <polygon class="cls-1" points="597.44 1330.25 606.49 1340.4 754.29 1303.6 756.29 1296.8 597.44 1330.25"/>
    <polygon class="cls-1" points="736.09 1317 622.09 1358.6 611.09 1345.4 736.09 1317"/>
    <polygon class="cls-1" points="1226.76 888.33 1423.02 935.13 1456.89 1015.93 1246.49 974.07 1272.09 943.67 1268.89 941.27 1236.89 971.2 1234.19 971 1233.69 957.4 1265.99 937.9 1263.19 935.4 1231.99 951.6 1231.59 939.9 1253.29 935.6 1252.99 932.8 1230.69 933.1 1226.76 888.33"/>
    <path class="cls-1" d="m1233.29,993.4l-19.6,135.87,70.67,7.86.53,4-70.13-1.06-1.74-7.07-5.2,32.67,76.4-9.07-.13,3.2-77.07,16.8-9.33,64.8,60,13.87-66.93-.54-6.14,17.07,98.8-10.8,35.47,4.6-139.2,19.53-4.67,12,149.87-29.33,30.4,6.27-185.73,39.06-5.47,16.94,202.25-52.49,59.35,12.62,38.4-258-230.8-38.8Zm33.75,127.3c-3.84,0-6.95-3.11-6.95-6.95s3.11-6.95,6.95-6.95,6.95,3.11,6.95,6.95-3.11,6.95-6.95,6.95Z"/>
    <polygon class="cls-1" points="1289.42 1170.47 1290.89 1172.73 1224.89 1214.33 1217.56 1200.33 1289.42 1170.47"/>
    <polygon class="cls-1" points="1293.29 1189.13 1295.82 1192.4 1254.22 1234.6 1244.36 1226.2 1293.29 1189.13"/>
    <path class="cls-1" d="m1093.69,1368.4l-4.6,27.2s.2-117-8.2-141.8c-7.8.2-15.8,0-15.8,0,0,0,53.4-36,51.8-98.4h-9.47s-3.2,13.47-20.13,19.6-36.67,3.73-56.27,5.6c-19.6,1.87-34.13,20.27-34.13,43.33s10.93,37.6,39.6,39.74c-6.8,1.2-13.87,2.8-13.87,2.8l-2.13,60.66s4.53,13.34,28.4,14c-15.47,5.47-29.2-2.53-35.6-8-6.4-5.46-19.33-17.86-41.47-20.4,9.2-2.4,20.98.27,24.29,2.4,3.31,2.14,11.05,6.8,14.38-.13-.13-9.6,0-31.87,0-31.87,0,0-2.53-11.06-7.87-11.06s-5.33,14.26-5.06,16.66c-3.6-6.66-10.8-18.13-10.8-18.13,0,0-13.87.27-23.87-3.47,8.13-1.06,25.6-7.93,25.6-42.93s-35.2-47.8-72.4-47.8c-6.13,8.2-12.8,13.4-16.8,15.8,4.2-6.4,5.67-10.6,6.73-14-3.73,0-21.13-.4-28.53-2.2,20-3.2,51-16.6,58.6-50.2,7.6-33.6-2-46.8-16-46.8s-25.4,17-32,20.4c-6.6,3.4-18.4,8.4-25,7-6.6-1.4-14.4,3.2-17,20.8-2.6,17.6-7.2,48.2,2,52.8,9.2,4.6,21.2,12.8,30.2,24,9,11.2,20.8,34.4,36,46.4,15.2,12,26,21.4,42.6,21.8-9.4,3-12.73,6.2-12.73,6.2,0,0,8.2,53.8-7.27,127.4,0-15.47-.6-24.4-.6-24.4,0,0-39,43.6-49.8,105.6-10.8,62,1.6,130.14,6,146.27,26.4,0,72.53-.54,72.53-.54,0,0,25.2-45.73,17.47-58.4-10.67,7.87-32.4,32.8-38.53,42.94,8-22.4,37.05-50.07,49.19-61.67,12.14-11.6,27.74-22,32.54-22s10.2,5,3.6,29.6c.2-12.6.86-24-6.6-24s-24.28,14.4-29.54,34.6c-5.26,20.2-1.86,41.4-8.06,56.2h100s2.8-48.2.4-75.2c0,0,13.8,25.2,13.8,74h16.4s28-59.8,28-121.8c0-53.6-50-138.6-50-138.6Zm-217.6-244.33c1.87-6.94,8.8-16.27,8.8-16.27,0,0-4,15.2-2.53,24.13,1.46,8.94,4,12,11.06,8.27,7.07-3.73,23.34-14.8,23.47-18.67.13-3.86-1.33-32.13,4.67-33.33-2.14,3.73-2.27,20.27-.8,26,1.46,5.73,1.33,13.2-4.4,18.53-5.74,5.34-15.87,16.8-29.6,16.8s-12.54-18.53-10.67-25.46Zm127.6,208.73c11.8,9.6,22,18.2,40.8,17-6.8,6.4-22.4,3.8-26.6,1.2,1.8,8.4-3.2,11.7-3.2,11.7,0,0,.5-9.8-4.7-16.2-5.2-6.4-14-14.2-31.7-19.9,0,0,13.6-3.4,25.4,6.2Zm1.6,199.6c-21.13,17.94-58.75,48.6-75.64,75.93,2.09-3.63,24.92-42.8,46.84-60.53,23-18.6,67.8-58.6,78.6-83-13.8,33.2-28.6,49.6-49.8,67.6Zm43.8-17.6c-.2,6.6-1.4,26.6-7.6,39.4,0,0,1.4-28.2,0-42.2,10.6-13,18.6-22.2,22-31.8-3.2,20.4-13.4,33.4-14.4,34.6Z"/>
    <path class="cls-1" d="m1116.49,1132.2s14.2-37.2,14-51.4c17.2.6,36.6,2,41.4,6.4,4.8,4.4,9,25.2-10.6,46.4-17.4-1-44.8-1.4-44.8-1.4Z"/>
    <path class="cls-1" d="m870.76,1080.8l-37.87,2.2s-20.4.93-20.4,26.67c0,18,8.13,27.73,8.13,27.73h15.6s-.95-20,6.39-30.27c7.34-10.27,12.28-12.67,16.28-10.53s9.87.7,11.87-.1v-15.7Z"/>
    <path class="cls-1" d="m879.69,1093.4s23-24.4,49-21c.2-22.8,6-50.8,11-58.2-14.6-13.4-22-13.8-27.2-13.8s-26,4.2-38.8,45.2c14.6-.4,32.8-1.2,46.4,12.6-18-5-37.64-3.8-45.12,2,1.72,6.4,4.92,28.6,4.72,33.2Z"/>
    <path class="cls-1" d="m997.29,1062s-15.2-21.6-55.4-13c0-22.4,7-53.6,41.2-53.6,19.4,0,27,18,25.8,24.4-1.2,6.4-6.6,40.4-8.4,68.4-1.8,28-1.6,51-1.6,55.2s-7.6,18-26.4,18-30.6-17.8-30.6-22.6,6.4-8.4,6.4-29.7-3.2-23.1-6.4-29.1v-17.4s15.8-13.4,55.4-.6Z"/>
    <path class="cls-1" d="m1084.09,1067.4l1.4-33s27.4-5.4,37.8,19.6c-.4,13-2.2,32.2-2.2,32.2,0,0-8.6-18.8-37-18.8Z"/>
    <path class="cls-1" d="m1083.29,1080.8s24-8.2,34.4,18.4c-7.8,27-19.8,52.2-35.2,52.2-10.4,0-13.07-11.33-13.07-11.33,0,0,12.67-32.87,13.87-59.27Z"/>
    <path class="cls-1" d="m1070.69,1072.6s-31.4-11-57.2,8.2c-1.2,23-1.6,63.8-1.6,63.8,0,0,4.4,13.2,24.2,13.2s23-11.6,26.4-22.4c3.4-10.8,13.4-44.8,13.4-78s-9.53-49.6-32-49.6-28.73,21.33-28.07,49.87c13.2-2.93,41.87-6.13,54.87,14.93Z"/>
  </g>
  <g id="GYM">
    <g>
      <rect class="cls-3" x="337.26" y="1622.4" width="1325.76" height="176.05"/>
      <g>
        <polygon class="cls-5" points="1375.48 1778.02 1375.48 1642.82 1298.94 1642.82 1240.28 1742.02 1177.08 1642.82 1100.81 1642.82 1100.81 1778.02 1155.21 1778.02 1155.21 1683.89 1215.21 1778.02 1270.14 1778.02 1325.88 1684.96 1325.88 1778.02 1375.48 1778.02"/>
        <polygon class="cls-5" points="948.28 1778.02 1002.41 1778.02 1002.41 1720.96 1096.54 1642.82 1032.28 1642.82 973.61 1691.36 916.01 1642.82 850.68 1642.82 948.28 1720.42 948.28 1778.02"/>
        <path class="cls-5" d="m726.41,1723.89v-27.47h122.93v81.6h-149.33s-75.2-4.53-75.2-67.6,84.27-67.6,84.27-67.6h140.27v28h-120.43s-43.83-2.67-43.83,39.6,45.33,38.53,45.33,38.53h64.27v-26.4l-68.27,1.33Z"/>
      </g>
    </g>
  </g>
  <g id="letras_MASTER" data-name="letras MASTER">
    <polygon class="cls-2" points="238.89 559.8 330.89 523 354.89 559.8 244.09 574.2 238.89 559.8"/>
    <polygon class="cls-2" points="391.29 548.6 385.29 498.2 478.89 462.6 509.29 535.8 391.29 548.6"/>
    <path class="cls-2" d="m550.89,841.4c-1.2-.8,19.6-164.8,19.6-164.8l55.6,130.8-75.2,34Z"/>
    <polygon class="cls-2" points="545.69 847 561.29 676.6 511.29 543.8 392.09 561 416.89 684.6 342.89 569.8 228.49 583.4 311.69 789 321.29 796.2 365.69 914.2 436.09 883.8 412.89 817 403.29 811 351.69 681.8 356.09 681.8 444.89 831.4 460.49 833.8 481.69 870.6 524.49 854.6 524.49 846.6 507.69 843 460.09 639.8 464.09 639.4 545.69 847"/>
    <polygon class="cls-2" points="738.49 643.93 728.89 643.93 727.56 630.87 655.82 637.4 655.82 748.47 693.42 753.53 738.49 643.93"/>
    <polygon class="cls-2" points="655.82 757.53 655.82 788.73 673.16 788.73 687.56 759 655.82 757.53"/>
    <polygon class="cls-2" points="679.29 791.67 692.62 759 738.49 762.33 738.49 781.53 679.29 791.67"/>
    <polygon class="cls-2" points="779.82 769 779.82 777.27 821.69 771.93 779.82 769"/>
    <polygon class="cls-2" points="697.16 753.53 743.82 759 738.49 700.73 774.22 700.73 792.89 763.4 854.49 767.4 854.49 760.2 873.16 760.47 849.16 692.2 811.02 623.13 816.62 623.13 855.02 685 834.76 620.73 828.89 620.73 793.69 507.93 798.22 498.07 763.29 390.87 713.69 397.8 751.56 507.93 785.16 509.27 747.02 511.93 745.69 500.73 735.56 499.67 684.09 409.53 637.42 417 639.02 505.8 643.82 512.73 649.42 630.87 724.36 625.53 712.89 509.53 707.56 504.73 708.36 477 718.76 510.87 725.42 519.93 747.82 610.07 763.82 556.73 761.42 542.33 769.16 555.13 777.16 550.87 769.16 565.53 772.62 567.4 757.16 607.67 757.42 622.87 805.42 622.87 792.62 624.47 792.62 630.87 759.29 630.87 761.42 647.93 742.49 648.2 697.16 753.53"/>
    <polygon class="cls-2" points="690.76 405 709.42 400.73 747.02 494.75 690.76 405"/>
    <path class="cls-2" d="m986.76,446.33h85.87v-82.93s-8.27-48-65.33-48c-25.6,0-47.2,8.27-63.47,10.4s-46.67,1.6-57.07,6.93-23.47,16.53-24,30.93c5.07,1.07,8.43,2.13,8.43,2.13l-5.3,1.4,5.4,83.6s-1.8,32.8,25.6,48,86.93,34.33,92.8,41,7.07,27.07,7.07,27.07l87.6,16s1.2-52-10.4-66.93c-11.6-14.93-21.6-23.47-45.6-32-24-8.53-67.93-25.33-67.93-25.33l-5.13-91.4s13.07-6.73,20.27,1.4,8.27,24,9.33,43.6c1.07,19.6,1.87,34.13,1.87,34.13Z"/>
    <polygon class="cls-2" points="996.89 621.13 993.82 567.27 1084.39 587.8 1085.42 602.47 996.89 621.13"/>
    <polygon class="cls-2" points="1000.89 636.33 1000.89 623.67 1090.49 606.87 1090.49 636.33 1000.89 636.33"/>
    <path class="cls-2" d="m1004.29,641.6h88.8s9.6,66.4-58.8,66.4-105,.8-105,.8c0,0-30.2.6-43.8-25.6,3.6.4,6.6.2,6.6.2,0,0-4.8-18.6-4.8-35.8,7.6-2.4,18.3-5.3,18.3-5.3l-18.7,1.8.1-9.6,4.3,1.83-4-79.73,86.28,16.6,6.92,63.13-24,1.47,20,6s2.13,18.4,14.4,18.4,14.27-8,13.4-20.6Z"/>
    <polygon class="cls-2" points="887.69 545.13 960.76 545.8 960.76 564.07 887.69 545.13"/>
    <path class="cls-2" d="m1134.49,340.2l172.8,14.8v54.2l-42.4-4.4-11.8,206.4h-12l-2,71.8-87.8-26,1.6-50.13h12.2l.73-53.73s15.47,4.8,14.8,4.8-15.2-12.27-15.2-12.27l9.07-151.07-40-4.4v-50Z"/>
    <polygon class="cls-2" points="1152.79 669.8 1152.79 724.5 1239.29 729.3 1239.29 688.5 1152.79 669.8"/>
    <polygon class="cls-2" points="1358.76 511.6 1380.09 413.8 1371.29 407.67 1371.02 398.6 1505.69 436.2 1501.16 478.6 1509.69 479.4 1509.69 489 1461.42 473.27 1437.69 563.67 1358.76 511.6"/>
    <polygon class="cls-2" points="1475.09 597.6 1478.89 583 1433.09 566.4 1475.09 597.6"/>
    <polygon class="cls-2" points="1472.29 635 1474.49 602.4 1351.09 515.6 1306.62 745.13 1302.09 745.13 1296.36 771.53 1301.42 772.73 1299.42 779.8 1433.69 811 1445.42 765 1383.69 752.07 1352.49 748.07 1395.02 745.13 1420.09 619.6 1472.29 635"/>
    <path class="cls-2" d="m1590.69,902.6c0-.8,12.6-28.4,12.6-28.4l84.2,34-19,41-77.8-46.6Z"/>
    <path class="cls-2" d="m1595.69,866l15.2-34.4h7.6l3.2-4.4-7.2-4,9.2-19,21.8,40.6,2.8-4.8-15.6-30.6,13-26.8s10.8-16.4-13.93-28.6c-10.87,16.87-15.53,23.93-15.53,23.93l-51.83-95.23,26.63-52.23,12.33,2.07-5.47-9.03-15.4-6.2,4.7-5.1,7.9,6.2,58.6-106.73,126.4,80.27s33.8,16.87,24.2,64.07c-5.4,2.2-10.4,4.8-10.4,4.8l-6.2,17.2-86.2-26,6.2-7.4,7.2-.2,7.6-14.2s9.4-20.4-16-32.6c-13.4,26.6-44.2,85.6-44.2,85.6l-39.4-38.6,17.6-.8-31.2-7.4,49.8,52.43-5.8,9.57,12.5,10.8s7.9,4.7,16.8,1c7.6,6.7,59.9,54.6,59.9,54.6,0,0-16.2,4.1-35.4,1.5,6.9,5.9,19.93,17.37,19.4,39.77-.53,22.4-28.93,73.07-28.93,73.07l-28-19.6,25.87,23.6-11.07,19.87-5.87-9.87-3.87,7.6-78.93-34.73Z"/>
    <path class="cls-2" d="m1686.62,708.2l23.33-45.07,85.73,23.2-28.27,55.73s-11.2,20.8-22.67,20.93c-10.8-10.13-58.13-54.8-58.13-54.8Z"/>
    <polygon class="cls-2" points="1482.09 840.87 1488.49 819.67 1570.49 857.53 1556.36 888.33 1482.09 840.87"/>
    <polygon class="cls-2" points="1488.49 813.8 1570.49 849.67 1603.16 772.07 1552.49 677 1488.49 813.8"/>
  </g>
</svg>